<svg aria-hidden="true" style="position: absolute; width: 0; height: 0; overflow: hidden;" version="1.1" xmlns="http://www.w3.org/2000/svg" xmlns:xlink="http://www.w3.org/1999/xlink">
<defs>
<symbol id="icon-podpiska" viewBox="0 0 115 32">
<path fill="#2196f3" style="fill: var(--color1, #2196f3)" d="M4.414 0h105.931c1.219 0 2.207 0.988 2.207 2.207v23.172c0 1.219-0.988 2.207-2.207 2.207h-105.931c-1.219 0-2.207-0.988-2.207-2.207v-23.172c0-1.219 0.988-2.207 2.207-2.207z"></path>
<path fill="#fff" style="fill: var(--color2, #fff)" d="M23.955 16.552h-1.297v-5.228h-2.513v5.228h-1.293v-6.276h5.103v6.276zM25.347 14.177c0-0.463 0.089-0.875 0.267-1.237s0.434-0.642 0.767-0.841c0.336-0.198 0.726-0.297 1.168-0.297 0.629 0 1.142 0.193 1.539 0.578 0.399 0.385 0.622 0.908 0.668 1.569l0.009 0.319c0 0.715-0.2 1.29-0.599 1.724-0.399 0.431-0.935 0.646-1.608 0.646s-1.21-0.215-1.612-0.646c-0.399-0.431-0.599-1.017-0.599-1.759v-0.056zM26.593 14.267c0 0.443 0.083 0.782 0.25 1.017 0.167 0.233 0.405 0.349 0.716 0.349 0.302 0 0.537-0.115 0.707-0.345 0.17-0.233 0.254-0.603 0.254-1.112 0-0.434-0.085-0.77-0.254-1.009s-0.408-0.358-0.716-0.358c-0.305 0-0.54 0.119-0.707 0.358-0.167 0.236-0.25 0.602-0.25 1.099zM30.816 15.547c0.282-0.299 0.473-0.595 0.573-0.888s0.157-0.708 0.168-1.246l0.034-1.526h3.431v3.659h0.672v2.405h-1.246v-1.401h-2.763v1.401h-1.272v-2.405h0.401zM32.286 15.547h1.496v-2.629h-0.97l-0.009 0.56c-0.026 0.856-0.198 1.546-0.517 2.069zM40.837 16.552h-1.25v-3.655h-1.56v3.655h-1.246v-4.664h4.056v4.664zM45.13 11.888h1.246v4.664h-1.246v-2.879l-1.56 2.879h-1.25v-4.664h1.25v2.875l1.56-2.875zM49.797 15.634c0.23 0 0.417-0.063 0.56-0.19s0.218-0.295 0.224-0.504h1.168c-0.003 0.316-0.089 0.606-0.259 0.871-0.17 0.262-0.402 0.466-0.698 0.612-0.293 0.144-0.618 0.215-0.974 0.215-0.667 0-1.193-0.211-1.578-0.634-0.385-0.425-0.578-1.011-0.578-1.759v-0.082c0-0.718 0.191-1.292 0.573-1.72s0.907-0.642 1.573-0.642c0.583 0 1.050 0.167 1.401 0.5 0.353 0.33 0.533 0.772 0.539 1.323h-1.168c-0.006-0.241-0.080-0.437-0.224-0.586-0.144-0.152-0.333-0.228-0.569-0.228-0.29 0-0.51 0.106-0.659 0.319-0.147 0.21-0.22 0.552-0.22 1.026v0.129c0 0.48 0.073 0.825 0.22 1.034s0.369 0.315 0.668 0.315zM55.693 16.552c-0.057-0.112-0.099-0.251-0.125-0.418-0.302 0.336-0.694 0.504-1.177 0.504-0.457 0-0.836-0.132-1.138-0.397-0.299-0.264-0.448-0.598-0.448-1 0-0.494 0.182-0.874 0.547-1.138 0.368-0.264 0.898-0.398 1.59-0.401h0.573v-0.267c0-0.216-0.056-0.388-0.168-0.517-0.109-0.129-0.283-0.194-0.521-0.194-0.21 0-0.375 0.050-0.496 0.151-0.118 0.101-0.177 0.239-0.177 0.414h-1.246c0-0.27 0.083-0.52 0.25-0.75s0.402-0.409 0.707-0.539c0.305-0.132 0.647-0.198 1.026-0.198 0.575 0 1.030 0.145 1.367 0.435 0.339 0.287 0.509 0.693 0.509 1.216v2.022c0.003 0.443 0.065 0.777 0.185 1.004v0.073h-1.259zM54.663 15.685c0.184 0 0.353-0.040 0.509-0.121 0.155-0.083 0.27-0.194 0.345-0.332v-0.802h-0.465c-0.624 0-0.955 0.216-0.996 0.647l-0.004 0.073c0 0.155 0.055 0.283 0.164 0.384s0.259 0.151 0.448 0.151zM62.055 12.888h-1.496v3.664h-1.25v-3.664h-1.47v-1h4.216v1zM64.546 13.254h0.893c0.402 0 0.755 0.068 1.060 0.203s0.537 0.329 0.698 0.582c0.164 0.25 0.246 0.542 0.246 0.875 0 0.491-0.182 0.888-0.547 1.19-0.362 0.299-0.856 0.448-1.482 0.448h-2.116v-4.664h1.25v1.366zM64.546 14.254v1.302h0.884c0.247 0 0.437-0.057 0.569-0.172s0.199-0.272 0.199-0.47c0-0.201-0.065-0.361-0.194-0.478-0.129-0.121-0.321-0.181-0.573-0.181h-0.884zM70.614 15.634c0.23 0 0.417-0.063 0.561-0.19s0.218-0.295 0.224-0.504h1.168c-0.003 0.316-0.089 0.606-0.258 0.871-0.17 0.262-0.402 0.466-0.698 0.612-0.293 0.144-0.618 0.215-0.974 0.215-0.666 0-1.192-0.211-1.577-0.634-0.385-0.425-0.578-1.011-0.578-1.759v-0.082c0-0.718 0.191-1.292 0.573-1.72s0.907-0.642 1.574-0.642c0.583 0 1.050 0.167 1.401 0.5 0.354 0.33 0.533 0.772 0.538 1.323h-1.168c-0.006-0.241-0.081-0.437-0.224-0.586-0.143-0.152-0.333-0.228-0.569-0.228-0.29 0-0.51 0.106-0.66 0.319-0.146 0.21-0.22 0.552-0.22 1.026v0.129c0 0.48 0.073 0.825 0.22 1.034s0.37 0.315 0.668 0.315zM77.695 11.888v4.664h-1.241v-1.612h-0.788l-0.897 1.612h-1.263l1.017-1.823c-0.279-0.129-0.494-0.305-0.646-0.526-0.15-0.221-0.225-0.473-0.225-0.754 0-0.451 0.174-0.82 0.522-1.108 0.35-0.29 0.819-0.441 1.405-0.453h2.116zM75.601 14.069h0.853v-1.181h-0.81c-0.221 0-0.401 0.059-0.539 0.177-0.138 0.115-0.207 0.256-0.207 0.422s0.066 0.305 0.199 0.414c0.132 0.109 0.3 0.165 0.504 0.168z"></path>
<path fill="#fff" style="fill: var(--color2, #fff)" d="M97.103 7.172l-13.241 7.448 4.232 1.567 6.527-6.119-4.964 6.698 0.004 0.002-0.005-0.002v3.647l2.373-2.769 3.006 1.113 2.069-11.586z"></path>
</symbol>
</defs>
</svg>