<svg aria-hidden="true" style="position: absolute; width: 0; height: 0; overflow: hidden;" version="1.1" xmlns="http://www.w3.org/2000/svg" xmlns:xlink="http://www.w3.org/1999/xlink">
<defs>
<symbol id="icon-nestle-logo" viewBox="0 0 45 32">
<path fill="#63513d" style="fill: var(--color1, #63513d)" d="M24.961 0.116c1.828 0 2.912 1.146 3.78 2.076 0.372 0.434 0.96 1.27 1.766 2.045 0.713 0.682 3.284 2.169 6.197 6.506 5.484 8.148 7.87 14.097 7.87 15.336 0 0.31-0.124 0.403-0.31 0.403-0.62 0-2.045-0.929-3.036-1.673v0l-0.031 0.031c0.31 0.775 1.27 3.47 1.549 4.276 0.093 0.248 0.155 0.434 0.155 0.682s-0.062 0.403-0.186 0.527c-0.155 0.124-0.279 0.186-0.558 0.186v0h-1.146c-0.465 0-0.651 0.093-0.929 0.372-0.403 0.372-0.465 0.434-0.806 0.775-0.186 0.186-0.403 0.279-0.62 0.279-0.465 0-0.682-0.31-0.806-0.867-0.62-3.284-1.177-6.878-1.332-7.87 0-0.062-0.031-0.155-0.031-0.217 0-0.093 0.031-0.155 0.155-0.155s0.155 0.124 0.217 0.341c0.217 0.96 1.146 4.4 1.735 7.188 0.031 0.217 0.155 0.31 0.279 0.31 0.093 0 0.155-0.031 0.279-0.155v0l0.527-0.527c0.124-0.124 0.155-0.186 0.155-0.341s-0.062-0.372-0.124-0.589c-0.093-0.465-0.341-1.797-0.589-2.943-0.031-0.217-0.062-0.279-0.062-0.341s0.062-0.124 0.124-0.124c0.062 0 0.124 0.031 0.155 0.124 0.186 0.527 1.053 3.067 1.208 3.532 0.062 0.124 0.124 0.217 0.186 0.279s0.155 0.093 0.372 0.093v0l0.535-0c0.099-0.001 0.154-0.007 0.209-0.062 0.031-0.031 0.062-0.093 0.062-0.186 0-0.124-0.062-0.248-0.093-0.372v0l-1.673-4.833c-2.2-1.58-4.833-3.749-7.157-6.29s-4.523-5.608-5.329-9.016c-0.093-0.372-0.124-0.558-0.124-0.651 0-0.062 0.031-0.124 0.124-0.124s0.124 0.031 0.155 0.124c0.093 0.217 0.155 0.403 0.279 0.62 1.487 3.284 3.222 5.887 5.174 8.117 2.788 3.129 6.228 5.67 10.193 8.365v0l0.031-0.031c-1.394-3.811-3.873-8.706-7.653-14.221-1.053-1.549-2.045-2.696-2.912-3.594-1.487-1.549-2.479-2.076-2.974-2.541-0.744-0.682-1.363-1.611-1.766-2.045-0.868-0.96-1.735-1.89-3.191-1.89-1.177 0-2.076 0.651-2.479 1.673-0.124 0.341-0.155 0.558-0.279 0.744-0.124 0.217-0.341 0.589-0.589 0.991v0h1.084l-0.62 1.084c0.248-0.062 0.775-0.186 1.363-0.186 0.713 0 1.487 0.186 1.859 0.899 0.558 1.084 0.465 3.532 1.084 5.267 0.651 1.797 1.859 3.439 3.315 4.895 0.031 0.062 0.062 0.062 0.062 0.124s-0.062 0.124-0.155 0.124c0 0-0.031 0-0.062-0.031-1.766-1.332-3.346-3.036-3.966-4.771-0.713-1.859-0.713-4.338-1.115-5.143-0.217-0.434-0.744-0.589-1.425-0.589-0.775 0-1.394 0.124-2.2 0.31v0l0.713-1.332h-1.456c0.341-0.527 1.084-1.859 1.27-2.138 0.093-0.124 0.155-0.465 0.279-0.744 0.372-0.96 1.518-2.107 3.284-2.107zM32.335 19.573c0.217 0.155 0.465 0.31 0.775 0.496-1.053 2.386-2.912 4.462-5.081 5.67-0.991 0.558-1.89 0.96-3.78 0.96v0h-3.687c-1.27 0-1.859 0.124-2.448 0.279-0.775 0.217-1.301 0.403-2.138 0.403-1.487 0-2.726-0.775-3.222-1.332v0l-3.47 2.695c-1.053 0.837-2.014 0.991-3.067 0.991v0h-0.186v-0.279c0-0.186 0.062-0.341 0.155-0.434 0.093-0.062 0.186-0.124 0.434-0.124 0.558 0 1.208-0.155 1.735-0.465s0.868-0.682 0.868-1.673c0-1.27-0.403-1.704-2.076-2.262v0l0.806-0.496c1.208 0.496 2.014 0.898 2.014 2.634 0 0.155 0 0.279-0.031 0.434v0l0.031 0.031c0.651-0.496 3.718-2.757 3.966-2.943v0l0.434 0.558-0.868 0.682c0.465 0.496 1.425 0.991 2.448 0.991 0.713 0 1.146-0.186 1.828-0.372s1.487-0.341 2.788-0.341v0h3.656c1.704 0 2.479-0.31 3.346-0.806 1.828-1.022 3.594-2.819 4.771-5.298zM7.611 12.168l-0.341 0.713c-0.341 0-3.563 0.341-3.563 1.239 0 0.775 2.014 1.549 2.819 1.549 0.341 0 0.651-0.124 0.991-0.279 0.341-0.124 0.651-0.248 1.115-0.248 0.96 0 2.881 0.744 4.090 1.425v0l-0.155 0.248c-0.093 0.186-0.217 0.248-0.403 0.248-0.062 0-0.124 0-0.186-0.031-1.084-0.434-2.355-0.929-3.346-0.929-0.434 0-0.744 0.124-1.053 0.248s-0.682 0.279-1.084 0.279c-0.775 0-2.2-0.589-2.819-1.146-0.062 0.155-0.124 0.31-0.124 0.496 0 0.899 1.673 2.293 3.253 2.696v0l0.155 0.744c-1.084-0.124-2.014-0.465-2.726-1.022-0.093 0.155-0.124 0.31-0.124 0.434 0 0.31 0.155 0.589 0.248 0.713 0.155 0.279 1.022 1.239 1.146 1.394 0.372 0.403 0.62 0.465 0.899 0.465 0.248 0 0.434-0.062 0.651-0.124 0.186-0.031 0.403-0.093 0.651-0.093 0.558 0 1.27 0.279 2.076 0.744s1.58 1.053 2.169 1.735v0l-0.682 0.496c-0.527-0.558-1.208-1.084-1.828-1.456-0.775-0.465-1.363-0.682-1.89-0.682-0.465 0-0.868 0.186-1.332 0.372-1.549 0.651-3.656 1.487-4.059 1.673-1.053 0.465-1.084 1.053-1.084 1.704v0.775c0 0.341-0.062 0.682-0.651 0.682v0h-0.279c-0.031-0.434-0.031-0.96-0.031-1.425 0-1.177 0.372-1.921 1.828-2.541 0.434-0.186 2.231-0.96 3.222-1.332v0l-0.248-0.248c-1.177-1.239-1.766-1.89-1.766-2.943 0-0.496 0.155-0.744 0.155-0.96 0-0.279-0.248-0.496-0.465-0.837-0.186-0.341-0.372-0.713-0.372-0.991 0-0.465 0.186-0.713 0.186-1.115 0-0.31-0.186-0.465-0.186-0.775 0-1.084 2.819-1.89 5.143-1.89v0zM29.609 18.086c0.155 0.124 0.465 0.341 0.682 0.465-2.076 1.115-2.943 2.448-3.873 3.966 0.093 0.031 0.248 0.062 0.403 0.031 0.96 0 1.766-0.558 2.695-1.301v0l0.031 0.31c0.031 0.093 0.031 0.155 0.031 0.248 0 0.186-0.031 0.341-0.279 0.527-0.651 0.527-1.704 1.084-2.726 1.084-0.279 0-0.496-0.062-0.744-0.124-1.766 1.084-4.523 1.549-7.467 1.549v0h-0.558l0.062-0.279c0.031-0.186 0.124-0.31 0.186-0.372 0.062-0.093 0.155-0.124 0.403-0.124 0.527 0 2.262-0.062 3.315-0.31-0.279-0.713-0.806-1.642-1.611-1.642-0.527 0-1.27 0.279-2.076 0.62-0.96 0.403-1.89 0.868-2.231 1.053v0l-0.434-0.589c0.31-0.217 1.301-0.744 2.417-1.239 0.96-0.403 1.766-0.775 2.479-0.775 1.022 0 1.983 1.177 2.355 2.355 0.651-0.124 1.177-0.31 1.58-0.465 1.642-0.651 1.518-1.58 3.067-3.222 0.682-0.713 1.487-1.425 2.293-1.766zM8.881 17.094c0.744 0 1.146 0.372 1.518 1.022 0.31 0.558 0.558 1.177 0.899 1.673 0.806 1.177 1.735 1.642 2.788 1.642 0.929 0 2.014-0.372 3.036-0.96v0l0.155 0.713c-1.053 0.589-2.169 0.991-3.253 0.991-1.27 0-2.603-0.558-3.563-1.983-0.372 0.062-1.022 0.186-1.921 0.186-0.341 0-0.527 0-0.682-0.062-0.124-0.062-0.155-0.155-0.186-0.31v0l-0.062-0.341h0.341c0.713 0 1.673-0.062 2.076-0.217v0l-0.155-0.31c-0.403-0.868-0.682-1.208-1.27-1.208-0.372 0-0.651 0.093-1.022 0.217-0.062 0-0.124 0.062-0.248 0.062-0.217 0-0.31-0.155-0.372-0.403v0l-0.031-0.155c0.651-0.279 1.301-0.558 1.952-0.558zM27.564 16.785c0.155 0.124 0.372 0.279 0.589 0.434l-0.403 0.496c-1.518 1.921-2.788 3.563-3.811 3.563-0.991 0-1.332-1.146-1.363-2.014-1.518 0.155-2.943 0.682-4.4 1.549l-0.186-0.713c1.611-0.868 3.067-1.549 5.453-1.797 0.062 0.898-0.031 2.045 0.651 2.045 0.62 0 1.952-1.58 3.47-3.563zM33.853 13.469c0.031 0 0.093 0.062 0.155 0.124 0.806 1.022 1.735 2.045 2.634 3.005 1.146 1.239 2.386 2.51 3.532 3.532 0.031 0.062 0.062 0.093 0.062 0.124 0 0.093-0.062 0.155-0.124 0.155s-0.093-0.031-0.155-0.062v0l-0.372-0.279c-1.208-0.868-2.355-1.859-3.346-2.881-0.929-0.96-1.673-1.983-2.262-3.005-0.217-0.341-0.279-0.465-0.279-0.589 0-0.062 0.062-0.124 0.155-0.124zM16.379 16.134l0.465 0.589c-1.084 0.434-3.253 1.363-3.253 2.169 0 0.279 0.155 0.496 0.806 0.496 1.146 0 2.386-0.558 3.532-1.115 0.093-0.031 0.186-0.062 0.279-0.062 0.155 0 0.248 0.062 0.341 0.186l0.186 0.248c-1.332 0.744-3.005 1.518-4.523 1.518-1.053 0-1.518-0.496-1.518-1.146 0-1.115 1.952-2.2 3.687-2.881zM26.356 15.669c0.124 0.155 0.372 0.372 0.558 0.558-0.248 0.155-1.673 0.929-3.129 0.929-0.651 0-1.27-0.062-1.797-0.155-0.465-0.062-0.991-0.124-1.456-0.124-0.558 0-1.642 0.155-2.293 0.465l-0.465-0.589c0.991-0.682 2.014-0.775 2.819-0.775 0.496 0 1.084 0.062 1.673 0.155 0.496 0.062 0.929 0.124 1.456 0.124 1.084 0 2.169-0.403 2.634-0.589zM20.624 7.955l-0.589 1.425 1.332 0.589c-0.96 0.589-1.921 1.766-2.262 3.005-0.217 0.744-0.248 1.58-0.279 2.107v0 0.186c-0.031 0.062-0.093 0.124-0.155 0.124s-0.093-0.062-0.124-0.124c-0.155-0.496-0.248-1.084-0.248-1.704 0-1.735 1.177-3.16 1.735-3.501v0l-0.868-0.341 0.372-0.868-0.155 0.062c-0.186 0.093-0.403 0.155-0.682 0.155-0.403 0-0.682-0.124-1.146-0.124-0.496 0-0.96 0.155-1.301 0.496-0.465 0.465-0.589 0.96-0.62 1.425-0.031 0.155-0.031 0.31-0.031 0.465-0.031 0.899-0.186 1.208-0.651 1.89-0.465 0.744-1.208 1.766-1.766 2.572-0.186-0.093-0.651-0.372-0.806-0.434 0.465-0.837 1.053-1.642 1.518-2.231 0.558-0.744 0.744-0.991 0.868-2.045 0.062-0.775 0.093-1.611 0.929-2.417 0.434-0.434 1.115-0.682 1.735-0.682 0.341 0 0.589 0.062 0.806 0.124 0.31 0.093 0.558 0.124 0.775 0.124 0.31 0 0.62-0.093 0.991-0.155v0l0.62-0.124zM15.698 3.090c0.589 0 0.898 0.124 1.518 0.403 0.434 0.217 0.806 0.217 1.332 0.217h0.837l-0.898 1.301 1.177 0.899c-1.673 0.527-2.014 0.899-2.479 1.456-0.124 0.186-0.186 0.248-0.31 0.248-0.093 0-0.124-0.062-0.124-0.124 0-0.031 0.031-0.093 0.062-0.186 0.155-0.403 0.651-1.301 1.58-1.58v0l-0.744-0.527 0.558-0.744c-0.093 0.031-0.186 0.031-0.341 0.031-0.403 0-0.558-0.031-0.929-0.186-0.434-0.186-0.713-0.279-1.115-0.279-0.465 0-0.899 0.155-1.27 0.496-0.403 0.403-0.496 0.929-0.651 1.518-0.403 1.673-1.053 2.386-2.107 3.625v0l-0.341 0.403c-1.022 1.208-1.735 2.788-2.293 3.935v0l-0.124 0.248-0.484 0c-0.214 0-0.401 0.003-0.538 0.031 0.96-2.355 1.518-3.408 2.634-4.709 0.837-0.991 1.084-1.239 1.456-1.766 0.434-0.651 0.651-1.301 0.775-1.952 0.217-0.775 0.403-1.487 0.991-2.045 0.527-0.465 1.146-0.713 1.828-0.713zM24.249 12.354l0.31 0.682h-4.028l0.403-0.682h3.315zM10.864 0.085c0.527 0 0.991 0.186 1.332 0.527 0.372 0.341 0.589 0.837 0.589 1.332 0 0.558-0.248 0.929-0.496 1.146 0.062 0.124 0.093 0.279 0.093 0.465 0 0.682-0.496 1.518-1.332 1.797-0.093 0.806-0.96 1.301-1.828 1.301-0.217 0-0.279-0.031-0.279-0.155 0-0.155 0.465-0.155 0.929-0.62 0.279-0.248 0.465-0.62 0.558-1.022 0.713-0.248 1.115-0.713 1.115-1.363 0-0.186-0.031-0.372-0.093-0.558 0.248-0.217 0.403-0.527 0.403-0.868 0-0.589-0.465-1.053-1.053-1.053-0.434 0-0.806 0.248-0.96 0.62-1.115 0-1.89 0.899-1.859 1.921-0.279 0.279-0.434 0.589-0.527 0.991-0.062 0.217-0.062 0.372-0.217 0.372-0.124 0-0.155-0.186-0.186-0.372-0.062-0.403-0.341-1.332-1.456-1.456-0.155-1.084-1.115-1.642-1.983-1.642-0.186 0-0.372 0-0.527 0.062-0.217-0.248-0.527-0.434-0.868-0.434-0.589 0-1.053 0.465-1.053 1.053 0 0.465 0.248 0.837 0.651 0.991v0 0.062c0 1.084 0.868 2.014 2.045 2.014 0.279 0.744 0.868 1.053 1.363 1.146 0.093 0 0.186 0.031 0.248 0.062s0.093 0.093 0.093 0.155c0 0.062-0.031 0.124-0.093 0.155s-0.124 0.031-0.248 0.062c-0.558 0.062-0.929 0.341-1.084 0.589-0.124-0.031-0.279-0.031-0.403-0.031-1.053 0-1.89 0.527-1.952 1.301-0.403 0.155-0.682 0.558-0.682 0.991 0 0.62 0.434 1.053 1.053 1.053 0.279 0 0.527-0.093 0.775-0.341 0.279 0.186 0.558 0.279 0.898 0.279 0.496 0 0.899-0.248 1.239-0.744 0.682 0 1.363-0.155 1.797-0.558 0.217-0.155 0.217-0.279 0.341-0.279 0.093 0 0.124 0.062 0.124 0.155 0 0.062-0.062 0.186-0.124 0.341-0.279 0.589-0.899 1.053-1.58 1.053v0h-0.186c-0.403 0.62-0.991 0.806-1.549 0.806-0.248 0-0.527-0.062-0.713-0.124-0.248 0.186-0.651 0.341-1.022 0.341-1.115 0-1.983-0.837-1.983-1.983 0-0.589 0.341-1.208 0.929-1.456 0-0.62 0.806-1.549 2.726-1.549v0h0.124v-0.124c-0.31-0.062-0.589-0.372-0.589-0.589-1.394 0-2.324-1.332-2.324-2.2v0-0.124c-0.589-0.403-0.898-0.868-0.898-1.549 0-1.084 0.868-1.952 1.952-1.952 0.558 0 0.96 0.186 1.332 0.527 0.155-0.031 0.31-0.031 0.465-0.031 1.208 0 1.952 0.837 2.293 1.828 0.434 0.031 0.929 0.341 0.991 0.806v0h0.155c0-1.363 1.084-2.293 1.952-2.293 0.279-0.434 0.806-0.837 1.58-0.837zM17.835 9.597c0.155 0 0.31 0.031 0.465 0.124 0.124 0.062 0.155 0.186 0.155 0.279 0 0.341-0.558 0.713-0.868 0.713-0.186 0.031-0.31-0.155-0.31-0.434 0-0.062 0-0.186 0.031-0.279 0.062-0.186 0.186-0.403 0.527-0.403zM7.394 6.374c0.434 0.465 1.425 1.642 2.014 2.85-0.155 0.124-0.496 0.62-0.62 0.806-0.651-1.518-1.363-2.726-1.766-3.315v0zM44.573 5.538v0.96c-0.96 0.341-2.664 1.022-3.594 1.425-0.124 0.062-0.155 0.093-0.217 0.155 0 0.093 0.124 0.155 0.465 0.155 0.62 0 1.518-0.186 2.386-0.341v0 0.713c-1.413 0.346-2.317 0.37-3.335 0.372l-0.228 0c-0.806 0-1.673 0.279-2.664 0.682-0.062-0.062-0.465-0.651-0.527-0.713 2.355-1.27 5.763-2.696 7.715-3.408v0zM6.031 7.8l0.155 0.465-2.881 0.96c-0.124 0.031-0.155 0.062-0.186 0.062-0.093 0-0.124-0.062-0.124-0.124s0.031-0.093 0.062-0.124c0.96-0.744 1.828-1.053 2.974-1.239zM39.151 1.045c-0.403 0.806-1.022 2.231-1.022 3.222 0 0.465 0.155 0.806 0.775 0.806 0.558 0 1.518-0.279 2.541-0.558 0.929-0.341 1.828-0.682 2.262-0.806v0 0.929c-0.403 0.093-1.146 0.403-2.014 0.682-1.022 0.341-2.107 0.682-2.788 0.682-1.115 0-1.58-0.651-1.58-1.549v0-0.186h-0.124c-0.682 1.053-1.301 2.107-1.859 2.726v0l-0.589-0.651c1.053-1.27 2.974-4.338 3.47-5.298v0zM16.038 4.732c0.186 0 0.372 0.062 0.527 0.217 0.093 0.062 0.124 0.155 0.124 0.248 0 0.186-0.186 0.372-0.403 0.496-0.155 0.093-0.341 0.155-0.496 0.155-0.248 0-0.341-0.155-0.341-0.403 0-0.341 0.186-0.713 0.589-0.713zM10.276 2.719c0.062 0 0.124 0.062 0.124 0.124 0 0.031-0.031 0.062-0.062 0.124-0.496 0.713-1.425 2.2-1.735 2.634l-0.403-0.248c0.279-0.651 0.62-1.239 1.022-1.673 0.279-0.341 0.558-0.589 0.868-0.837 0.062-0.062 0.124-0.124 0.186-0.124zM3.212 2.719c0.589 0.248 1.084 0.496 1.518 0.868 0.372 0.279 0.713 0.62 1.084 1.022l-0.341 0.372c-0.403-0.341-1.735-1.425-2.417-2.014-0.062-0.062-0.093-0.124-0.093-0.155 0-0.062 0.031-0.124 0.124-0.124 0.031 0 0.062 0 0.124 0.031zM24.032 2.378c0.186 0 0.341 0.031 0.465 0.124 0.186 0.093 0.31 0.217 0.31 0.341 0 0.155-0.155 0.279-0.341 0.465-0.217 0.186-0.496 0.341-0.713 0.341-0.279 0-0.372-0.279-0.372-0.496 0-0.279 0.155-0.775 0.651-0.775z"></path>
</symbol>
</defs>
</svg>
